<?xml version="1.0" standalone="no"?>
<!DOCTYPE svg PUBLIC "-//W3C//DTD SVG 20010904//EN"
 "http://www.w3.org/TR/2001/REC-SVG-20010904/DTD/svg10.dtd">
<svg version="1.0" xmlns="http://www.w3.org/2000/svg"
 width="512.000000pt" height="512.000000pt" viewBox="0 0 512.000000 512.000000"
 preserveAspectRatio="xMidYMid meet">

<g transform="translate(0.000000,512.000000) scale(0.100000,-0.100000)"
fill="#4C7BF3" stroke="none">
<path d="M3170 4206 c-79 -18 -127 -35 -195 -69 -223 -111 -382 -308 -446
-552 -22 -87 -30 -252 -16 -339 l9 -49 -94 6 c-332 22 -698 141 -1008 329
-171 103 -296 203 -464 370 -179 179 -163 175 -210 56 -78 -203 -85 -387 -19
-572 51 -144 159 -301 268 -390 l57 -46 -32 0 c-58 0 -185 31 -262 65 l-78 33
0 -50 c0 -176 93 -389 234 -536 104 -109 206 -174 351 -222 l80 -27 -86 -13
c-50 -7 -129 -11 -188 -8 -119 6 -116 15 -44 -123 78 -149 206 -278 353 -353
107 -55 163 -73 274 -89 l89 -13 -39 -31 c-21 -17 -69 -49 -106 -72 -290 -176
-613 -261 -952 -249 -148 6 -148 5 -1 -74 503 -270 1046 -357 1610 -257 853
151 1531 759 1810 1620 75 232 115 477 115 704 l0 133 58 43 c107 81 274 259
347 372 l18 27 -47 -20 c-102 -43 -398 -121 -411 -108 -2 2 28 28 67 58 111
85 217 230 263 361 l13 37 -121 -58 c-114 -55 -251 -104 -359 -131 l-48 -11
-52 47 c-105 95 -232 162 -371 195 -95 23 -277 26 -367 6z"/>
</g>
</svg>
