<?xml version="1.0" standalone="no"?>
<!DOCTYPE svg PUBLIC "-//W3C//DTD SVG 20010904//EN"
 "http://www.w3.org/TR/2001/REC-SVG-20010904/DTD/svg10.dtd">
<svg version="1.0" xmlns="http://www.w3.org/2000/svg"
 width="64.000000pt" height="64.000000pt" viewBox="0 0 64.000000 64.000000"
 preserveAspectRatio="xMidYMid meet">

<g transform="translate(0.000000,64.000000) scale(0.100000,-0.100000)"
fill="#000000" stroke="none">
<path d="M249 617 c-143 -40 -232 -154 -233 -298 0 -55 6 -78 32 -132 18 -36
47 -78 65 -93 157 -133 385 -91 476 88 29 58 34 77 34 138 0 61 -5 80 -34 138
-65 128 -210 195 -340 159z m257 -180 c21 -25 24 -37 24 -117 0 -80 -3 -92
-24 -117 l-24 -28 -162 0 -162 0 -24 28 c-21 25 -24 38 -24 116 0 73 3 93 20
114 27 33 39 35 208 34 l144 -2 24 -28z"/>
<path d="M165 441 c-3 -6 23 -33 57 -60 85 -69 111 -69 196 0 34 27 60 54 57
60 -4 5 -73 9 -155 9 -82 0 -151 -4 -155 -9z"/>
<path d="M130 321 c0 -133 -3 -131 190 -131 193 0 190 -2 190 131 0 62 -4 99
-10 99 -6 0 -37 -22 -70 -49 -93 -77 -130 -77 -225 4 -29 25 -57 45 -64 45 -7
0 -11 -32 -11 -99z"/>
</g>
</svg>
